<svg xmlns="http://www.w3.org/2000/svg" width="75.123" height="60" viewBox="0 0 75.123 60">
  <g id="kashnow-logo-dark" transform="translate(249.768 786.953)">
    <path id="Path_1518" data-name="Path 1518" d="M-249.768-409.618c0-.5.325-.744.853-.744a2.117,2.117,0,0,1,.758.162v3.776c.907-.866,2.964-2.748,3.641-3.316a1.932,1.932,0,0,1,1.286-.623,1.344,1.344,0,0,1,1.056.474c-.284.284-3.3,2.965-4.345,3.885a33.163,33.163,0,0,1,4.683,4.927h-1.99a35.112,35.112,0,0,0-4.331-4.264v4.264h-1.611Z" transform="translate(0 -326.12)" fill="#222628"/>
    <path id="Path_1519" data-name="Path 1519" d="M-189.574-402.651c.907-2.423,2.274-5.672,3.574-8.568a1.324,1.324,0,0,1,1.34-.961,1.877,1.877,0,0,1,.961.3c.866,1.516,3.479,8.027,3.912,9.231h-1.787c-.176-.433-.636-1.692-.92-2.423h-4.534c-.393.988-.717,1.868-.92,2.423Zm6.538-3.844c-.5-1.34-1.367-3.4-1.692-4.047-.474,1-1.191,2.639-1.733,4.047Z" transform="translate(-52.127 -324.546)" fill="#222628"/>
    <path id="Path_1520" data-name="Path 1520" d="M-111-404.776a6.249,6.249,0,0,0,3.411.947c1.57,0,2.193-.474,2.193-1.326,0-.826-.636-1.137-1.719-1.313l-1.489-.271c-1.516-.257-2.924-.961-2.924-2.64,0-1.529,1.1-2.8,3.749-2.8a5.567,5.567,0,0,1,3.14.7.92.92,0,0,1,.487.731,1.282,1.282,0,0,1-.541.947,4.462,4.462,0,0,0-3.059-.988c-1.624,0-2.139.514-2.139,1.3,0,.69.487,1.042,1.733,1.272l1.516.284c1.963.365,2.964,1.11,2.964,2.667,0,1.719-1.381,2.856-3.939,2.856a7.588,7.588,0,0,1-4.088-1.11Z" transform="translate(-119.56 -324.546)" fill="#222628"/>
    <path id="Path_1521" data-name="Path 1521" d="M-39.087-409.618c0-.5.325-.744.853-.744a2.117,2.117,0,0,1,.758.162v3.56h4.764v-2.978c0-.5.311-.744.839-.744a1.766,1.766,0,0,1,.772.176v9.109h-1.611v-4.088h-4.764v4.088h-1.611Z" transform="translate(-182.446 -326.12)" fill="#222628"/>
    <path id="Path_1522" data-name="Path 1522" d="M60.6-409.5c0-.636.447-.866.974-.866a1.588,1.588,0,0,1,.961.311c.569.677,3.262,4.575,4.44,6.4v-5.969c0-.5.3-.744.826-.744a1.69,1.69,0,0,1,.758.176v9.109H66.932c-.961-1.489-3.316-5.022-4.737-6.984v6.984H60.6Z" transform="translate(-268.77 -326.12)" fill="#222628"/>
    <path id="Path_1523" data-name="Path 1523" d="M141.706-407.294a4.833,4.833,0,0,1-4.954,4.887,4.833,4.833,0,0,1-4.954-4.887,4.833,4.833,0,0,1,4.954-4.886,4.833,4.833,0,0,1,4.954,4.886m-1.692,0a3.227,3.227,0,0,0-3.262-3.411,3.219,3.219,0,0,0-3.262,3.411,3.235,3.235,0,0,0,3.262,3.411,3.242,3.242,0,0,0,3.262-3.411" transform="translate(-330.429 -324.546)" fill="#222628"/>
    <path id="Path_1524" data-name="Path 1524" d="M213.83-401.077c-.758-1.841-2.287-6.078-2.558-7a6.389,6.389,0,0,1-.393-1.516.728.728,0,0,1,.826-.772,1.5,1.5,0,0,1,.758.189c.379,1.489,1.53,5.089,2.288,7.147.65-2.166,1.557-5.482,1.814-6.5.149-.5.379-.839.988-.839a1.972,1.972,0,0,1,.866.2c.433,1.868,1.178,4.805,1.868,7.12.8-2.315,1.6-4.927,2.03-6.443.176-.609.447-.88,1.029-.88a1.629,1.629,0,0,1,.92.271c-.65,2.369-1.99,6.091-3.14,9.015h-1.814c-.325-.92-1.313-4.4-1.8-6.443-.5,2.03-1.5,5.428-1.882,6.443Z" transform="translate(-398.911 -326.12)" fill="#222628"/>
    <path id="Path_1525" data-name="Path 1525" d="M-51.852-762.458a2.945,2.945,0,0,0,2.945,2.964,2.967,2.967,0,0,0,2.967-2.967v-3.466a1.083,1.083,0,0,1,.317-.766l15.194-15.194a2.968,2.968,0,0,0,0-4.2,2.968,2.968,0,0,0-4.2,0L-51.006-769.7a2.962,2.962,0,0,0-.846,2.461Z" transform="translate(-171.372)" fill="#222628"/>
    <path id="Path_1526" data-name="Path 1526" d="M-40.213-641.59a.723.723,0,0,0-1.023,0l-4.394,4.393a.2.2,0,0,0-.018.02l-.019.019a1.085,1.085,0,0,0-.279.726v3.466A2.967,2.967,0,0,1-48.914-630a2.968,2.968,0,0,1-2.967-2.967v-4.781h.023c-.011-.091-.018-.183-.021-.273a2.971,2.971,0,0,1,.053-.658c.018-.093.041-.185.067-.276a2.944,2.944,0,0,1,.747-1.254l6.092-6.092,4.2-4.2,6.092-6.092a2.957,2.957,0,0,1,.718-.529q.129-.068.263-.122a2.971,2.971,0,0,1,2.234,0c.089.036.177.077.263.122a2.958,2.958,0,0,1,.718.529,2.967,2.967,0,0,1,0,4.2l-5.58,5.581a.723.723,0,0,0,0,1.023l5.58,5.58a2.96,2.96,0,0,1,.846,2.461h.023v4.781A2.968,2.968,0,0,1-32.534-630a2.968,2.968,0,0,1-2.968-2.967v-3.466a1.083,1.083,0,0,0-.317-.765Z" transform="translate(-171.365 -112.142)" fill="#222628"/>
  </g>
</svg>
