<svg width="88" height="123" viewBox="0 0 88 123" fill="none" xmlns="http://www.w3.org/2000/svg">
<path d="M4.02081 118.434C4.02081 119.936 3.06916 120.843 1.44319 120.843H0V116.006H1.44319C3.06916 116.006 4.02081 116.919 4.02081 118.434ZM1.44319 120.43C2.82337 120.43 3.52922 119.667 3.52922 118.421C3.55314 118.145 3.51526 117.867 3.41824 117.608C3.32122 117.348 3.16749 117.113 2.96808 116.919C2.76867 116.725 2.52853 116.577 2.26489 116.487C2.00125 116.396 1.72062 116.364 1.44319 116.394H0.472665V120.43H1.44319Z" fill="#00C294"/>
<path d="M4.80176 115.991C4.80176 115.897 4.83926 115.807 4.90604 115.741C4.97281 115.674 5.0634 115.637 5.15783 115.637C5.25227 115.637 5.34285 115.674 5.40963 115.741C5.47641 115.807 5.51391 115.897 5.51391 115.991C5.51391 116.085 5.47641 116.174 5.40963 116.241C5.34285 116.307 5.25227 116.344 5.15783 116.344C5.0634 116.344 4.97281 116.307 4.90604 116.241C4.83926 116.174 4.80176 116.085 4.80176 115.991ZM4.91519 117.061H5.40047V120.815H4.88369L4.91519 117.061Z" fill="#00C294"/>
<path d="M8.10402 117.009C8.41368 116.994 8.7211 117.068 8.98862 117.224C9.25613 117.38 9.47216 117.609 9.61026 117.885V117.059H10.0955V120.932C10.0758 121.361 9.9048 121.769 9.6126 122.085C9.3204 122.401 8.92558 122.604 8.49729 122.66C8.06901 122.716 7.63453 122.621 7.26997 122.391C6.90542 122.161 6.63401 121.81 6.50328 121.402H6.98225C7.07747 121.672 7.26022 121.903 7.50196 122.06C7.7437 122.216 8.0308 122.288 8.31831 122.265C8.49096 122.266 8.66185 122.231 8.82037 122.163C8.97889 122.095 9.12165 121.995 9.23983 121.87C9.35801 121.745 9.44906 121.598 9.50736 121.436C9.56566 121.275 9.58998 121.103 9.57875 120.932V120C9.44275 120.279 9.22773 120.512 8.96015 120.671C8.69257 120.83 8.38407 120.908 8.07252 120.895C7.57274 120.867 7.10275 120.65 6.75896 120.288C6.41517 119.927 6.22363 119.449 6.22363 118.952C6.22363 118.455 6.41517 117.977 6.75896 117.615C7.10275 117.254 7.57274 117.037 8.07252 117.009M8.16076 117.428C7.9643 117.423 7.76909 117.46 7.58812 117.537C7.40715 117.613 7.24452 117.726 7.11103 117.869C6.97754 118.012 6.87626 118.182 6.81385 118.367C6.75144 118.552 6.72937 118.748 6.74907 118.942C6.76992 119.216 6.87062 119.477 7.03883 119.694C7.20704 119.911 7.43543 120.075 7.69602 120.165C7.95661 120.256 8.23808 120.268 8.50587 120.202C8.77367 120.136 9.01617 119.994 9.20364 119.792C9.39111 119.591 9.51538 119.34 9.56125 119.07C9.60713 118.8 9.57261 118.522 9.4619 118.271C9.35118 118.02 9.16908 117.807 8.93796 117.657C8.70684 117.507 8.43674 117.428 8.16076 117.428Z" fill="#00C294"/>
<path d="M11.0977 115.991C11.0977 115.897 11.1352 115.807 11.202 115.741C11.2688 115.674 11.3593 115.637 11.4537 115.637C11.5482 115.637 11.6388 115.674 11.7055 115.741C11.7723 115.807 11.8098 115.897 11.8098 115.991C11.8098 116.085 11.7723 116.174 11.7055 116.241C11.6388 116.307 11.5482 116.344 11.4537 116.344C11.3593 116.344 11.2688 116.307 11.202 116.241C11.1352 116.174 11.0977 116.085 11.0977 115.991ZM11.2111 117.061H11.6964V120.815H11.1859L11.2111 117.061Z" fill="#00C294"/>
<path d="M12.9454 117.472H12.416V117.065H12.9454V116.114H13.437V117.065H14.4831V117.472H13.437V119.806C13.437 120.269 13.5945 120.432 14.0672 120.432H14.5147V120.845H13.9916C13.3613 120.845 12.9769 120.576 12.9769 119.818L12.9454 117.472Z" fill="#00C294"/>
<path d="M16.8571 117.009C17.1683 116.994 17.477 117.07 17.7448 117.228C18.0126 117.386 18.2278 117.619 18.3634 117.898V117.065H18.8486V120.82H18.3634V119.981C18.2263 120.261 18.0102 120.494 17.7415 120.653C17.4728 120.812 17.1633 120.889 16.8508 120.876C16.3511 120.848 15.8811 120.631 15.5373 120.27C15.1935 119.909 15.002 119.43 15.002 118.933C15.002 118.436 15.1935 117.958 15.5373 117.597C15.8811 117.235 16.3511 117.018 16.8508 116.99M16.9391 117.409C16.7426 117.405 16.5474 117.442 16.3664 117.518C16.1855 117.594 16.0229 117.707 15.8894 117.851C15.7559 117.994 15.6546 118.164 15.5922 118.349C15.5298 118.534 15.5077 118.73 15.5274 118.924C15.5482 119.197 15.6489 119.458 15.8172 119.676C15.9854 119.893 16.2137 120.057 16.4743 120.147C16.7349 120.237 17.0164 120.25 17.2842 120.184C17.552 120.117 17.7945 119.975 17.982 119.774C18.1694 119.573 18.2937 119.322 18.3396 119.052C18.3855 118.781 18.3509 118.504 18.2402 118.253C18.1295 118.002 17.9474 117.788 17.7163 117.638C17.4852 117.489 17.2151 117.409 16.9391 117.409Z" fill="#00C294"/>
<path d="M20.4696 115.725H19.9844V120.844H20.4696V115.725Z" fill="#00C294"/>
<path d="M26.0271 116.403H23.9726V118.211H25.8191V118.612H23.9726V120.445H26.0271V120.846H23.4873V116.002H26.0271V116.403Z" fill="#00C294"/>
<path d="M28.5925 117.007C28.8992 117 29.202 117.077 29.467 117.231C29.7319 117.384 29.9485 117.608 30.0924 117.877V115.718H30.5777V120.837H30.0924V119.992C29.9587 120.273 29.7444 120.508 29.4764 120.669C29.2084 120.829 28.8987 120.907 28.5862 120.893C28.0864 120.865 27.6164 120.648 27.2726 120.287C26.9288 119.926 26.7373 119.447 26.7373 118.95C26.7373 118.453 26.9288 117.975 27.2726 117.614C27.6164 117.253 28.0864 117.036 28.5862 117.007M28.6681 117.427C28.4717 117.422 28.2765 117.459 28.0955 117.535C27.9146 117.611 27.7519 117.725 27.6184 117.868C27.4849 118.011 27.3836 118.181 27.3212 118.366C27.2588 118.551 27.2367 118.747 27.2564 118.941C27.2773 119.214 27.378 119.476 27.5462 119.693C27.7144 119.91 27.9428 120.074 28.2034 120.164C28.464 120.254 28.7454 120.267 29.0132 120.201C29.281 120.135 29.5235 119.992 29.711 119.791C29.8985 119.59 30.0228 119.339 30.0687 119.069C30.1145 118.798 30.08 118.521 29.9693 118.27C29.8585 118.019 29.6765 117.805 29.4454 117.656C29.2142 117.506 28.9441 117.426 28.6681 117.427Z" fill="#00C294"/>
<path d="M34.9827 120.836H34.5038V120.173C34.3806 120.405 34.1926 120.597 33.9624 120.726C33.7321 120.854 33.4693 120.914 33.2055 120.899C32.9909 120.91 32.7764 120.875 32.5769 120.795C32.3775 120.716 32.1979 120.594 32.0509 120.439C31.9038 120.283 31.7927 120.097 31.7255 119.895C31.6582 119.692 31.6364 119.477 31.6615 119.265V117.056H32.1404V119.209C32.1191 119.369 32.1334 119.532 32.1823 119.687C32.2312 119.841 32.3134 119.982 32.4234 120.102C32.5333 120.221 32.6681 120.315 32.8185 120.377C32.9689 120.439 33.1311 120.468 33.2938 120.461C34.0059 120.461 34.4975 120.016 34.4975 119.096V117.044H34.9827V120.836Z" fill="#00C294"/>
<path d="M37.7178 117.012C38.117 116.979 38.5146 117.092 38.836 117.33C39.1574 117.567 39.3805 117.912 39.4636 118.302H38.9153C38.8487 118.035 38.6882 117.8 38.4628 117.641C38.2374 117.481 37.962 117.407 37.6863 117.432C37.3108 117.479 36.9656 117.661 36.7155 117.944C36.4654 118.226 36.3274 118.589 36.3274 118.965C36.3274 119.341 36.4654 119.704 36.7155 119.986C36.9656 120.268 37.3108 120.45 37.6863 120.498C37.9631 120.524 38.2399 120.449 38.4657 120.288C38.6915 120.127 38.8511 119.891 38.9153 119.622H39.4384C39.3517 120.009 39.1276 120.352 38.8071 120.589C38.4866 120.826 38.091 120.94 37.6926 120.911C37.1929 120.883 36.7229 120.666 36.3791 120.305C36.0353 119.943 35.8438 119.465 35.8438 118.968C35.8438 118.471 36.0353 117.993 36.3791 117.631C36.7229 117.27 37.1929 117.053 37.6926 117.025" fill="#00C294"/>
<path d="M41.9592 117.009C42.2704 116.994 42.5791 117.07 42.8469 117.228C43.1147 117.386 43.3298 117.619 43.4654 117.898V117.065H43.957V120.82H43.4717V119.981C43.3347 120.261 43.1186 120.494 42.8499 120.653C42.5812 120.812 42.2717 120.889 41.9592 120.876C41.4595 120.848 40.9895 120.631 40.6457 120.27C40.3019 119.909 40.1104 119.43 40.1104 118.933C40.1104 118.436 40.3019 117.958 40.6457 117.597C40.9895 117.235 41.4595 117.018 41.9592 116.99M42.0474 117.409C41.851 117.405 41.6558 117.442 41.4748 117.518C41.2939 117.594 41.1312 117.707 40.9978 117.851C40.8643 117.994 40.763 118.164 40.7006 118.349C40.6382 118.534 40.616 118.73 40.6358 118.924C40.6529 119.197 40.7502 119.46 40.9155 119.68C41.0809 119.899 41.3071 120.066 41.5665 120.159C41.826 120.253 42.1073 120.269 42.376 120.207C42.6447 120.144 42.8891 120.005 43.0792 119.806C43.2693 119.607 43.3968 119.358 43.4462 119.088C43.4955 118.818 43.4645 118.54 43.357 118.288C43.2494 118.035 43.07 117.819 42.8408 117.667C42.6115 117.514 42.3424 117.431 42.0664 117.428" fill="#00C294"/>
<path d="M45.2179 117.472H44.6885V117.065H45.2179V116.114H45.7095V117.065H46.7556V117.472H45.7095V119.806C45.7095 120.269 45.867 120.432 46.3397 120.432H46.7871V120.845H46.264C45.6338 120.845 45.2494 120.576 45.2494 119.818L45.2179 117.472Z" fill="#00C294"/>
<path d="M47.4287 115.991C47.4287 115.897 47.4662 115.807 47.533 115.741C47.5998 115.674 47.6903 115.637 47.7848 115.637C47.8792 115.637 47.9698 115.674 48.0365 115.741C48.1033 115.807 48.1409 115.897 48.1409 115.991C48.1409 116.085 48.1033 116.174 48.0365 116.241C47.9698 116.307 47.8792 116.344 47.7848 116.344C47.6903 116.344 47.5998 116.307 47.533 116.241C47.4662 116.174 47.4287 116.085 47.4287 115.991ZM47.5421 117.061H48.0274V120.815H47.5421V117.061Z" fill="#00C294"/>
<path d="M50.8018 120.898C50.4115 120.912 50.026 120.809 49.6946 120.604C49.3633 120.399 49.1014 120.1 48.9423 119.745C48.7833 119.391 48.7344 118.998 48.8021 118.616C48.8697 118.234 49.0507 117.881 49.3218 117.602C49.5929 117.323 49.9419 117.13 50.3239 117.05C50.7058 116.969 51.1034 117.003 51.4656 117.148C51.8278 117.293 52.1381 117.542 52.3567 117.864C52.5753 118.185 52.6922 118.564 52.6924 118.952C52.7073 119.205 52.6691 119.459 52.5803 119.697C52.4914 119.936 52.3539 120.153 52.1763 120.336C51.9986 120.519 51.7848 120.663 51.5483 120.76C51.3117 120.856 51.0575 120.904 50.8018 120.898ZM50.8018 120.479C51.1107 120.508 51.4212 120.443 51.6926 120.294C51.9639 120.144 52.1834 119.917 52.3222 119.641C52.4609 119.366 52.5125 119.055 52.47 118.75C52.4276 118.445 52.2931 118.159 52.0844 117.931C51.8756 117.703 51.6022 117.543 51.3002 117.473C50.9983 117.402 50.6818 117.423 50.3923 117.534C50.1029 117.645 49.8541 117.841 49.6786 118.095C49.5031 118.349 49.4091 118.65 49.409 118.958C49.3875 119.151 49.4077 119.347 49.4682 119.532C49.5286 119.717 49.628 119.887 49.7598 120.03C49.8915 120.174 50.0526 120.289 50.2322 120.366C50.4119 120.443 50.606 120.482 50.8018 120.479Z" fill="#00C294"/>
<path d="M56.4531 118.68C56.4745 118.519 56.4601 118.355 56.4109 118.201C56.3616 118.046 56.2788 117.904 56.1681 117.785C56.0575 117.665 55.9219 117.571 55.7707 117.51C55.6196 117.448 55.4567 117.42 55.2935 117.428C54.5813 117.428 54.0898 117.873 54.0898 118.792V120.851H53.6045V117.097H54.0898V117.722C54.2154 117.495 54.4034 117.307 54.632 117.18C54.8606 117.054 55.1205 116.995 55.3817 117.009C55.5963 116.997 55.8108 117.033 56.0103 117.112C56.2097 117.192 56.3893 117.313 56.5363 117.469C56.6834 117.625 56.7945 117.81 56.8618 118.013C56.929 118.215 56.9509 118.43 56.9258 118.642V120.857H56.4468L56.4531 118.68Z" fill="#00C294"/>
<path d="M61.3893 118.781H60.4061V120.84H59.9209V116.002H61.3893C62.5174 116.002 63.0342 116.628 63.0342 117.392C63.0342 118.155 62.53 118.775 61.3893 118.775M61.3893 118.362C62.2086 118.362 62.53 117.986 62.53 117.392C62.53 116.797 62.2086 116.409 61.3893 116.409H60.4061V118.362H61.3893Z" fill="#00C294"/>
<path d="M64.332 115.725H63.8467V120.844H64.332V115.725Z" fill="#00C294"/>
<path d="M67.0363 117.009C67.3475 116.994 67.6562 117.07 67.924 117.228C68.1918 117.386 68.4069 117.619 68.5425 117.898V117.065H69.0278V120.82H68.5362V119.981C68.3992 120.261 68.183 120.494 67.9144 120.653C67.6457 120.812 67.3362 120.889 67.0237 120.876C66.5239 120.848 66.0539 120.631 65.7101 120.27C65.3663 119.909 65.1748 119.43 65.1748 118.933C65.1748 118.436 65.3663 117.958 65.7101 117.597C66.0539 117.235 66.5239 117.018 67.0237 116.99M67.1119 117.409C66.9155 117.405 66.7203 117.442 66.5393 117.518C66.3584 117.594 66.1957 117.707 66.0622 117.851C65.9288 117.994 65.8274 118.164 65.765 118.349C65.7026 118.534 65.6805 118.73 65.7002 118.924C65.7211 119.197 65.8218 119.458 65.99 119.676C66.1582 119.893 66.3866 120.057 66.6472 120.147C66.9078 120.237 67.1892 120.25 67.457 120.184C67.7248 120.117 67.9673 119.975 68.1548 119.774C68.3423 119.573 68.4666 119.322 68.5125 119.052C68.5583 118.781 68.5238 118.504 68.4131 118.253C68.3024 118.002 68.1203 117.788 67.8892 117.638C67.658 117.489 67.3879 117.409 67.1119 117.409Z" fill="#00C294"/>
<path d="M70.2814 117.472H69.752V117.065H70.2814V116.114H70.7729V117.065H71.8191V117.472H70.7729V119.806C70.7729 120.269 70.9305 120.432 71.4031 120.432H71.8506V120.845H71.3275C70.6973 120.845 70.3129 120.576 70.3129 119.818L70.2814 117.472Z" fill="#00C294"/>
<path d="M72.7462 117.471H72.2168V117.065H72.7462V116.802C72.7462 115.994 73.1306 115.606 74.0885 115.606V116.019C73.4583 116.019 73.2314 116.257 73.2314 116.802V117.065H74.1137V117.471H73.2314V120.838H72.7462V117.471Z" fill="#00C294"/>
<path d="M76.5527 120.898C76.1624 120.912 75.7769 120.809 75.4456 120.604C75.1143 120.399 74.8523 120.1 74.6933 119.745C74.5343 119.391 74.4854 118.998 74.553 118.616C74.6206 118.234 74.8016 117.881 75.0728 117.602C75.3439 117.323 75.6929 117.13 76.0748 117.05C76.4568 116.969 76.8544 117.003 77.2166 117.148C77.5788 117.293 77.8891 117.542 78.1077 117.864C78.3263 118.185 78.4432 118.564 78.4434 118.952C78.4583 119.205 78.4201 119.459 78.3312 119.697C78.2424 119.936 78.1048 120.153 77.9272 120.336C77.7496 120.519 77.5358 120.663 77.2992 120.76C77.0627 120.856 76.8085 120.904 76.5527 120.898ZM76.5527 120.479C76.8617 120.508 77.1722 120.443 77.4436 120.294C77.7149 120.144 77.9344 119.917 78.0731 119.641C78.2119 119.366 78.2634 119.055 78.221 118.75C78.1785 118.445 78.0441 118.159 77.8353 117.931C77.6266 117.703 77.3532 117.543 77.0512 117.473C76.7492 117.402 76.4327 117.423 76.1433 117.534C75.8539 117.645 75.6051 117.841 75.4296 118.095C75.2541 118.349 75.1601 118.65 75.16 118.958C75.1385 119.151 75.1587 119.347 75.2191 119.532C75.2796 119.717 75.379 119.887 75.5107 120.03C75.6425 120.174 75.8035 120.289 75.9832 120.366C76.1628 120.443 76.357 120.482 76.5527 120.479Z" fill="#00C294"/>
<path d="M79.8427 120.839H79.3574V117.085H79.8427V117.754C79.9578 117.513 80.1446 117.313 80.378 117.181C80.6113 117.049 80.8798 116.991 81.1473 117.016V117.523H81.0149C80.3847 117.523 79.8427 117.804 79.8427 118.774V120.839Z" fill="#00C294"/>
<path d="M87.4423 118.676C87.4423 117.837 87.0012 117.424 86.3268 117.424C85.6525 117.424 85.1483 117.881 85.1483 118.801V120.847H84.6694V118.676C84.6694 117.837 84.2219 117.424 83.5476 117.424C82.8732 117.424 82.3691 117.881 82.3691 118.801V120.847H81.8838V117.093H82.3691V117.719C82.4892 117.493 82.6713 117.305 82.8944 117.178C83.1175 117.05 83.3724 116.988 83.6295 116.999C83.9331 116.981 84.2343 117.062 84.4877 117.229C84.7411 117.396 84.9331 117.64 85.0349 117.925C85.1326 117.644 85.3191 117.402 85.5668 117.235C85.8144 117.068 86.1098 116.985 86.4088 116.999C86.6214 116.99 86.8334 117.027 87.03 117.108C87.2266 117.189 87.4031 117.311 87.5471 117.467C87.6911 117.622 87.7992 117.807 87.8638 118.008C87.9285 118.21 87.9481 118.423 87.9213 118.632V120.847H87.4423V118.676Z" fill="#00C294"/>
<path d="M0 99.3916H9.94487V101.882H6.54168V112.157H3.40949V101.882H0V99.3916Z" fill="#0B1B3D"/>
<path d="M15.4022 101.865C16.0208 101.833 16.637 101.963 17.1898 102.241C17.7425 102.518 18.2125 102.935 18.5533 103.448V102.009H21.7044V112.159H18.5533V110.72C18.2085 111.229 17.7377 111.643 17.186 111.92C16.6342 112.197 16.02 112.329 15.4022 112.303C12.8813 112.303 10.915 110.269 10.915 107.065C10.915 103.861 12.9128 101.865 15.4211 101.865M16.3349 104.575C15.1627 104.575 14.0976 105.451 14.0976 107.078C14.0976 108.705 15.1627 109.581 16.3349 109.581C17.5071 109.581 18.5722 108.692 18.5722 107.078C18.5722 105.463 17.526 104.575 16.3349 104.575Z" fill="#0B1B3D"/>
<path d="M27.8426 101.865C28.4613 101.833 29.0775 101.963 29.6302 102.241C30.1829 102.518 30.653 102.935 30.9937 103.448V102.009H34.1448V112.159H30.9937V110.72C30.649 111.229 30.1781 111.643 29.6264 111.92C29.0746 112.197 28.4604 112.329 27.8426 112.303C25.3218 112.303 23.3555 110.269 23.3555 107.065C23.3555 103.861 25.3533 101.865 27.8616 101.865M28.7753 104.575C27.6031 104.575 26.5381 105.451 26.5381 107.078C26.5381 108.705 27.6031 109.581 28.7753 109.581C29.9476 109.581 31.0127 108.692 31.0127 107.078C31.0127 105.463 29.9665 104.575 28.7753 104.575Z" fill="#0B1B3D"/>
<path d="M39.5267 98.6982H36.3945V112.159H39.5267V98.6982Z" fill="#0B1B3D"/>
<path d="M46.3397 112.295C43.3335 112.295 41.1719 110.293 41.1719 107.076C41.1719 103.86 43.2957 101.857 46.3397 101.857C49.3836 101.857 51.4318 103.822 51.4318 106.914C51.4302 107.217 51.4113 107.52 51.3751 107.821H44.2915C44.2819 108.078 44.3254 108.333 44.4193 108.572C44.5132 108.812 44.6555 109.029 44.8375 109.212C45.0194 109.394 45.237 109.537 45.477 109.633C45.7169 109.728 45.9741 109.774 46.2325 109.767C46.5732 109.79 46.9127 109.707 47.2047 109.531C47.4967 109.356 47.7272 109.095 47.8648 108.785H51.1987C50.9161 109.833 50.2802 110.753 49.3972 111.392C48.5141 112.03 47.4372 112.349 46.346 112.295M44.3104 106.094H48.2303C48.2304 105.851 48.1795 105.61 48.0807 105.387C47.982 105.164 47.8376 104.965 47.6567 104.8C47.4759 104.636 47.2626 104.511 47.0304 104.433C46.7982 104.355 46.5522 104.326 46.3081 104.348C45.8134 104.33 45.3306 104.501 44.9589 104.826C44.5873 105.15 44.3552 105.604 44.3104 106.094Z" fill="#0B1B3D"/>
<path d="M57.6209 112.295C54.6148 112.295 52.4531 110.293 52.4531 107.076C52.4531 103.86 54.577 101.857 57.6209 101.857C60.6649 101.857 62.7131 103.822 62.7131 106.914C62.7115 107.217 62.6926 107.52 62.6564 107.821H55.5727C55.5631 108.078 55.6067 108.333 55.7006 108.572C55.7945 108.812 55.9368 109.029 56.1187 109.212C56.3007 109.394 56.5183 109.537 56.7583 109.633C56.9982 109.728 57.2554 109.774 57.5138 109.767C57.8545 109.79 58.1939 109.707 58.4859 109.531C58.778 109.356 59.0084 109.095 59.1461 108.785H62.4799C62.1973 109.833 61.5615 110.753 60.6784 111.392C59.7954 112.03 58.7185 112.349 57.6272 112.295M55.5916 106.094H59.5116C59.5107 105.851 59.4592 105.611 59.3601 105.388C59.261 105.166 59.1166 104.967 58.936 104.803C58.7554 104.638 58.5424 104.513 58.3107 104.435C58.0789 104.357 57.8333 104.327 57.5894 104.348C57.0947 104.33 56.6118 104.501 56.2402 104.826C55.8685 105.15 55.6365 105.604 55.5916 106.094Z" fill="#0B1B3D"/>
<path d="M78.4491 106.665C78.4708 106.397 78.4362 106.126 78.3476 105.872C78.2589 105.617 78.1181 105.383 77.934 105.185C77.7499 104.987 77.5265 104.829 77.2778 104.721C77.0291 104.613 76.7606 104.557 76.4891 104.557C76.2176 104.557 75.9491 104.613 75.7004 104.721C75.4517 104.829 75.2283 104.987 75.0442 105.185C74.86 105.383 74.7192 105.617 74.6306 105.872C74.5419 106.126 74.5074 106.397 74.5291 106.665V112.178H71.4158V106.665C71.4375 106.397 71.403 106.126 71.3143 105.872C71.2257 105.617 71.0849 105.383 70.9008 105.185C70.7166 104.987 70.4932 104.829 70.2445 104.721C69.9958 104.613 69.7273 104.557 69.4558 104.557C69.1844 104.557 68.9158 104.613 68.6671 104.721C68.4185 104.829 68.195 104.987 68.0109 105.185C67.8268 105.383 67.686 105.617 67.5973 105.872C67.5087 106.126 67.4741 106.397 67.4958 106.665V112.178H64.3447V102.01H67.4958V103.261C67.8471 102.811 68.3014 102.451 68.821 102.211C69.3405 101.97 69.9103 101.856 70.4831 101.878C71.1804 101.846 71.8733 102.003 72.4866 102.334C73.0999 102.665 73.6102 103.157 73.9619 103.756C74.3327 103.181 74.8425 102.709 75.4447 102.381C76.047 102.053 76.7224 101.88 77.4092 101.878C79.9301 101.878 81.5686 103.48 81.5686 106.209V112.141H78.4554L78.4491 106.665Z" fill="#0B1B3D"/>
<path d="M85.2306 101.969L84.2411 103.646H82.716L84.4806 100.861L82.6719 98.1704H84.2411L85.344 99.8224L86.3209 98.1704H87.846L86.094 100.93L87.9153 103.646H86.3524L85.2306 101.969Z" fill="#0B1B3D"/>
<path d="M48.7976 44.5424C46.0498 44.4548 43.9134 42.5963 42.2433 41.0506L28.202 27.0521C26.658 25.3688 24.7295 23.0096 24.7295 19.9371V0H42.2118V20.6505C42.2118 26.7142 43.0059 27.4839 49.2766 27.4839H78.2667V44.7114L48.7976 44.5424ZM26.6075 1.87107L26.7525 20.0184C26.8218 22.6342 28.3281 24.3988 29.5885 25.8006L43.529 39.7052C45.5646 41.5825 47.4552 42.6463 48.8669 42.6964L76.3382 42.8466V29.3862H49.2388C41.3988 29.4238 40.2896 27.753 40.2896 20.6755V1.90235L26.6075 1.87107Z" fill="#00C294"/>
<path d="M64.0553 76.3917V91.7919H51.3375C48.2977 91.5335 45.4113 90.3539 43.069 88.4128L29.0277 74.5394C27.5278 72.9312 25.9333 70.6409 25.8766 68.6134L25.6812 49.8402C25.5867 45.4598 23.9607 43.8265 19.4736 43.8015L3.35254 43.7077V28.395H15.5977C18.6381 28.6589 21.5249 29.8378 23.8725 31.7742L37.9075 45.6475C39.4074 47.262 41.0082 49.5461 41.0586 51.5798L41.254 70.353C41.3548 74.7334 42.9745 76.3667 47.4679 76.398L64.0553 76.3917Z" fill="#0B1B3D"/>
</svg>
