<svg version="1.1" xmlns="http://www.w3.org/2000/svg" viewBox="0 0 1000 1000">
  <rect width="1000" height="1000" rx="80" fill="#35253F"/>
  <path d="M0 0 C33.79849582 -1.47355473 68.52422538 6.71768384 98.63867188 22.11474609 C99.85756104 22.73736328 99.85756104 22.73736328 101.10107422 23.37255859 C112.24560109 29.14198632 122.70232465 35.4492055 132.63867188 43.11474609 C133.57710937 43.83017578 134.51554688 44.54560547 135.48242188 45.28271484 C152.73666157 58.89274012 169.48874012 76.88955601 176.63867188 98.11474609 C176.63867188 99.10474609 176.63867188 100.09474609 176.63867188 101.11474609 C176.02572266 101.12932861 175.41277344 101.14391113 174.78125 101.15893555 C136.32668744 102.17638517 106.08994052 114.16751298 78.63867188 141.11474609 C77.29869141 142.39671875 77.29869141 142.39671875 75.93164062 143.70458984 C70.88246699 148.61415499 66.32101622 153.76085343 61.92382812 159.25927734 C59.51589079 162.26816998 57.05255156 165.22449413 54.57617188 168.17724609 C45.46641654 179.09493748 36.71667543 190.30579253 27.98242188 201.52490234 C22.9403954 207.98930123 17.80718102 214.3645181 12.57617188 220.67724609 C7.5343755 226.76181954 2.64144019 232.9307026 -2.14648438 239.21630859 C-6.44372454 244.83985745 -10.89362453 250.33860495 -15.39648438 255.79833984 C-21.09197892 262.72237366 -26.6092016 269.68996444 -31.76098633 277.02905273 C-41.40606731 290.75708086 -52.03203645 303.74709053 -63.36132812 316.11474609 C-64.27183645 317.11833304 -65.18197848 318.12225239 -66.09179688 319.12646484 C-73.78003498 327.59270317 -81.59771351 335.75001832 -90.36132812 343.11474609 C-90.90257324 343.57510254 -91.44381836 344.03545898 -92.00146484 344.50976562 C-101.94658157 352.93796597 -112.23509578 360.32872705 -123.36132812 367.11474609 C-123.95623047 367.48438477 -124.55113281 367.85402344 -125.1640625 368.23486328 C-135.08461506 374.37157909 -145.52699379 378.8649186 -156.36132812 383.11474609 C-157.00634277 383.36885254 -157.65135742 383.62295898 -158.31591797 383.88476562 C-167.46411581 387.4417115 -176.76689389 390.10916645 -186.36132812 392.11474609 C-187.06918457 392.26717773 -187.77704102 392.41960937 -188.50634766 392.57666016 C-214.400067 397.89201908 -243.46952767 396.70917834 -269.36132812 392.11474609 C-270.15845215 391.98084473 -270.95557617 391.84694336 -271.77685547 391.70898438 C-321.5748463 383.15886108 -376.89602498 359.92693933 -413.36132812 324.11474609 C-414.18866455 323.31593018 -414.18866455 323.31593018 -415.03271484 322.50097656 C-416.73320795 320.85900536 -418.42433038 319.20807241 -420.11132812 317.55224609 C-420.63766846 317.03919922 -421.16400879 316.52615234 -421.70629883 315.99755859 C-422.96434222 314.74184217 -424.16839382 313.43247317 -425.36132812 312.11474609 C-425.36132812 311.45474609 -425.36132812 310.79474609 -425.36132812 310.11474609 C-424.56984375 310.27330078 -423.77835937 310.43185547 -422.96289062 310.59521484 C-381.86723096 316.52333061 -335.48750829 294.75133707 -303.21679688 270.77880859 C-290.09902697 260.10272885 -277.88019235 247.67966437 -266.86767578 234.86401367 C-264.79614652 232.45842094 -262.640347 230.1339534 -260.48632812 227.80224609 C-256.04448504 222.92688979 -251.84578166 217.90259121 -247.70703125 212.76953125 C-246.15155736 210.85679503 -244.57786261 208.9598984 -243.00195312 207.06396484 C-236.99154471 199.82770661 -231.0802649 192.57121484 -225.49804688 184.99755859 C-223.59426201 182.42901521 -221.6527339 179.89453957 -219.69067383 177.37036133 C-212.11494912 167.61929844 -205.01606199 157.55687835 -198.04882812 147.36474609 C-192.51855768 139.27600152 -186.78903952 131.3394214 -181.02734375 123.41455078 C-179.35395749 121.10457151 -177.69195848 118.78681183 -176.03320312 116.46630859 C-158.53405791 92.01350127 -139.5348397 67.4941996 -116.36132812 48.11474609 C-115.84715332 47.68145996 -115.33297852 47.24817383 -114.80322266 46.80175781 C-96.48882932 31.4522052 -75.87329758 19.23236779 -53.36132812 11.11474609 C-52.56710449 10.82325684 -51.77288086 10.53176758 -50.95458984 10.23144531 C-38.87515633 5.83871507 -27.12544805 2.66041411 -14.36132812 1.11474609 C-13.39066406 0.98455078 -12.42 0.85435547 -11.41992188 0.72021484 C-7.61774156 0.30512966 -3.81846504 0.18555403 0 0 Z " fill="#FEFEFE" transform="translate(698.361328125,301.88525390625)"/>
  <path d="M0 0 C0.87790192 -0.00100708 1.75580383 -0.00201416 2.66030884 -0.00305176 C16.83090546 0.0078939 30.58318965 0.79147098 44.5625 3.25 C45.91480713 3.47478027 45.91480713 3.47478027 47.29443359 3.70410156 C56.91618847 5.31427976 66.39460603 7.3256963 75.8125 9.875 C76.58190918 10.08108887 77.35131836 10.28717773 78.14404297 10.49951172 C79.97001144 11.01767492 81.77006958 11.62562258 83.5625 12.25 C83.8925 12.91 84.2225 13.57 84.5625 14.25 C83.59570312 14.79527344 82.62890625 15.34054687 81.6328125 15.90234375 C74.34145937 20.0960448 67.80786746 24.33472503 61.7109375 30.20703125 C59.5625 32.25 59.5625 32.25 56.9921875 34.28515625 C54.82243072 36.03979879 53.10347532 37.74934747 51.3125 39.875 C48.68473955 42.95680113 45.99523575 45.95986334 43.25 48.9375 C37.99682262 54.77534805 33.24337464 60.95297084 28.5625 67.25 C27.8516626 68.20011963 27.8516626 68.20011963 27.12646484 69.16943359 C18.45667589 80.80019275 10.48352168 92.85031714 2.60546875 105.0234375 C-3.00361479 113.68818533 -8.71819024 122.26867601 -14.66796875 130.703125 C-16.57099759 133.44214223 -18.41273046 136.21648142 -20.25 139 C-33.87883313 159.50889918 -49.16171878 178.78476596 -65.4375 197.25 C-66.47197266 198.44109375 -66.47197266 198.44109375 -67.52734375 199.65625 C-77.916256 211.4288863 -88.97108373 222.67982185 -101.4375 232.25 C-102.49697433 233.08742881 -103.55552603 233.92602584 -104.61328125 234.765625 C-136.3538714 259.80349558 -174.36965374 274.37686858 -215.20751953 269.94970703 C-243.6356532 265.77301137 -276.93425979 253.3272392 -300.29296875 236.66796875 C-302.79179581 235.01573884 -305.36568096 233.7412602 -308.0625 232.4375 C-326.20204787 223.57437914 -342.59460871 211.66489727 -358.4375 199.25 C-359.21609375 198.7034375 -359.9946875 198.156875 -360.796875 197.59375 C-361.33828125 197.1503125 -361.8796875 196.706875 -362.4375 196.25 C-362.4375 195.59 -362.4375 194.93 -362.4375 194.25 C-361.29087891 194.27618408 -360.14425781 194.30236816 -358.96289062 194.3293457 C-327.33111984 195.20936976 -327.33111984 195.20936976 -296.4375 189.25 C-295.59300293 188.99299316 -294.74850586 188.73598633 -293.87841797 188.47119141 C-261.61984172 178.36362828 -235.95600962 155.56478237 -216.79199219 128.13525391 C-214.6890177 125.20822272 -212.44769386 122.39185212 -210.22485352 119.55541992 C-207.34577346 115.84183531 -204.5842175 112.04397073 -201.8125 108.25 C-191.7643359 94.57112264 -181.63548044 81.0156977 -170.4375 68.25 C-169.98665039 67.73066895 -169.53580078 67.21133789 -169.07128906 66.67626953 C-162.75722544 59.43234912 -156.05808097 53.13758741 -148.4375 47.25 C-147.7465625 46.68152344 -147.055625 46.11304688 -146.34375 45.52734375 C-134.17581919 35.62920003 -120.61713383 27.84707464 -106.4375 21.25 C-105.50550781 20.80213135 -105.50550781 20.80213135 -104.5546875 20.34521484 C-71.85006307 4.6514424 -35.89048257 0.02884644 0 0 Z " fill="#FEFEFE" transform="translate(488.4375,317.75)"/>
</svg>
